<svg xmlns="http://www.w3.org/2000/svg" viewBox="0 0 32 32">
  <defs>
    <linearGradient id="shield-gradient" x1="0%" y1="0%" x2="100%" y2="100%">
      <stop offset="0%" style="stop-color:#3b82f6"/>
      <stop offset="100%" style="stop-color:#1d4ed8"/>
    </linearGradient>
  </defs>
  <!-- Shield background -->
  <path d="M16 2 L28 6 V14 C28 22 22 28 16 30 C10 28 4 22 4 14 V6 L16 2Z" fill="url(#shield-gradient)"/>
  <!-- Inner shield highlight -->
  <path d="M16 4 L26 7.5 V14 C26 20.5 21 26 16 28 C11 26 6 20.5 6 14 V7.5 L16 4Z" fill="#1e40af" fill-opacity="0.3"/>
  <!-- Star (keeper symbol) -->
  <path d="M16 8 L18 13 L23 13 L19 16.5 L20.5 22 L16 18.5 L11.5 22 L13 16.5 L9 13 L14 13 Z" fill="#fbbf24"/>
</svg>
